<?xml version="1.0" encoding="UTF-8"?>
<svg xmlns="http://www.w3.org/2000/svg" xmlns:xlink="http://www.w3.org/1999/xlink" width="504pt" height="288pt" viewBox="0 0 504 288" version="1.1">
<g id="surface21">
<rect x="0" y="0" width="504" height="288" style="fill:rgb(100%,100%,100%);fill-opacity:1;stroke:none;"/>
<path style="fill-rule:nonzero;fill:rgb(0%,0%,0%);fill-opacity:1;stroke-width:0.708661;stroke-linecap:round;stroke-linejoin:round;stroke:rgb(0%,0%,0%);stroke-opacity:1;stroke-miterlimit:10;" d="M 231.53125 200.800781 C 231.53125 203.410156 227.625 203.410156 227.625 200.800781 C 227.625 198.195312 231.53125 198.195312 231.53125 200.800781 "/>
<path style="fill-rule:nonzero;fill:rgb(0%,0%,0%);fill-opacity:1;stroke-width:0.708661;stroke-linecap:round;stroke-linejoin:round;stroke:rgb(0%,0%,0%);stroke-opacity:1;stroke-miterlimit:10;" d="M 231.53125 183.730469 C 231.53125 186.335938 227.625 186.335938 227.625 183.730469 C 227.625 181.125 231.53125 181.125 231.53125 183.730469 "/>
<path style="fill-rule:nonzero;fill:rgb(0%,0%,0%);fill-opacity:1;stroke-width:0.708661;stroke-linecap:round;stroke-linejoin:round;stroke:rgb(0%,0%,0%);stroke-opacity:1;stroke-miterlimit:10;" d="M 266.628906 220.886719 C 266.628906 223.492188 262.71875 223.492188 262.71875 220.886719 C 262.71875 218.277344 266.628906 218.277344 266.628906 220.886719 "/>
<path style="fill-rule:nonzero;fill:rgb(0%,0%,0%);fill-opacity:1;stroke-width:0.708661;stroke-linecap:round;stroke-linejoin:round;stroke:rgb(0%,0%,0%);stroke-opacity:1;stroke-miterlimit:10;" d="M 239.332031 160.96875 C 239.332031 163.578125 235.421875 163.578125 235.421875 160.96875 C 235.421875 158.363281 239.332031 158.363281 239.332031 160.96875 "/>
<path style="fill-rule:nonzero;fill:rgb(0%,0%,0%);fill-opacity:1;stroke-width:0.708661;stroke-linecap:round;stroke-linejoin:round;stroke:rgb(0%,0%,0%);stroke-opacity:1;stroke-miterlimit:10;" d="M 186.691406 145.90625 C 186.691406 148.515625 182.78125 148.515625 182.78125 145.90625 C 182.78125 143.300781 186.691406 143.300781 186.691406 145.90625 "/>
<path style="fill-rule:nonzero;fill:rgb(0%,0%,0%);fill-opacity:1;stroke-width:0.708661;stroke-linecap:round;stroke-linejoin:round;stroke:rgb(0%,0%,0%);stroke-opacity:1;stroke-miterlimit:10;" d="M 174.992188 144.570312 C 174.992188 147.175781 171.082031 147.175781 171.082031 144.570312 C 171.082031 141.960938 174.992188 141.960938 174.992188 144.570312 "/>
<path style="fill-rule:nonzero;fill:rgb(0%,0%,0%);fill-opacity:1;stroke-width:0.708661;stroke-linecap:round;stroke-linejoin:round;stroke:rgb(0%,0%,0%);stroke-opacity:1;stroke-miterlimit:10;" d="M 100.902344 137.207031 C 100.902344 139.8125 96.992188 139.8125 96.992188 137.207031 C 96.992188 134.597656 100.902344 134.597656 100.902344 137.207031 "/>
<path style="fill-rule:nonzero;fill:rgb(0%,0%,0%);fill-opacity:1;stroke-width:0.708661;stroke-linecap:round;stroke-linejoin:round;stroke:rgb(0%,0%,0%);stroke-opacity:1;stroke-miterlimit:10;" d="M 297.824219 162.644531 C 297.824219 165.25 293.914062 165.25 293.914062 162.644531 C 293.914062 160.039062 297.824219 160.039062 297.824219 162.644531 "/>
<path style="fill-rule:nonzero;fill:rgb(0%,0%,0%);fill-opacity:1;stroke-width:0.708661;stroke-linecap:round;stroke-linejoin:round;stroke:rgb(0%,0%,0%);stroke-opacity:1;stroke-miterlimit:10;" d="M 266.628906 165.320312 C 266.628906 167.929688 262.71875 167.929688 262.71875 165.320312 C 262.71875 162.714844 266.628906 162.714844 266.628906 165.320312 "/>
<path style="fill-rule:nonzero;fill:rgb(0%,0%,0%);fill-opacity:1;stroke-width:0.708661;stroke-linecap:round;stroke-linejoin:round;stroke:rgb(0%,0%,0%);stroke-opacity:1;stroke-miterlimit:10;" d="M 196.4375 145.90625 C 196.4375 148.515625 192.527344 148.515625 192.527344 145.90625 C 192.527344 143.300781 196.4375 143.300781 196.4375 145.90625 "/>
<path style="fill-rule:nonzero;fill:rgb(0%,0%,0%);fill-opacity:1;stroke-width:0.708661;stroke-linecap:round;stroke-linejoin:round;stroke:rgb(0%,0%,0%);stroke-opacity:1;stroke-miterlimit:10;" d="M 169.140625 145.90625 C 169.140625 148.515625 165.234375 148.515625 165.234375 145.90625 C 165.234375 143.300781 169.140625 143.300781 169.140625 145.90625 "/>
<path style="fill-rule:nonzero;fill:rgb(0%,0%,0%);fill-opacity:1;stroke-width:0.708661;stroke-linecap:round;stroke-linejoin:round;stroke:rgb(0%,0%,0%);stroke-opacity:1;stroke-miterlimit:10;" d="M 141.847656 103.734375 C 141.847656 106.339844 137.9375 106.339844 137.9375 103.734375 C 137.9375 101.125 141.847656 101.125 141.847656 103.734375 "/>
<path style="fill-rule:nonzero;fill:rgb(0%,0%,0%);fill-opacity:1;stroke-width:0.708661;stroke-linecap:round;stroke-linejoin:round;stroke:rgb(0%,0%,0%);stroke-opacity:1;stroke-miterlimit:10;" d="M 159.394531 126.492188 C 159.394531 129.101562 155.484375 129.101562 155.484375 126.492188 C 155.484375 123.886719 159.394531 123.886719 159.394531 126.492188 "/>
<path style="fill-rule:nonzero;fill:rgb(0%,0%,0%);fill-opacity:1;stroke-width:0.708661;stroke-linecap:round;stroke-linejoin:round;stroke:rgb(0%,0%,0%);stroke-opacity:1;stroke-miterlimit:10;" d="M 118.449219 123.148438 C 118.449219 125.753906 114.539062 125.753906 114.539062 123.148438 C 114.539062 120.539062 118.449219 120.539062 118.449219 123.148438 "/>
<path style="fill-rule:nonzero;fill:rgb(0%,0%,0%);fill-opacity:1;stroke-width:0.708661;stroke-linecap:round;stroke-linejoin:round;stroke:rgb(0%,0%,0%);stroke-opacity:1;stroke-miterlimit:10;" d="M 24.863281 24.738281 C 24.863281 27.34375 20.953125 27.34375 20.953125 24.738281 C 20.953125 22.132812 24.863281 22.132812 24.863281 24.738281 "/>
<path style="fill-rule:nonzero;fill:rgb(0%,0%,0%);fill-opacity:1;stroke-width:0.708661;stroke-linecap:round;stroke-linejoin:round;stroke:rgb(0%,0%,0%);stroke-opacity:1;stroke-miterlimit:10;" d="M 24.863281 13.089844 C 24.863281 15.699219 20.953125 15.699219 20.953125 13.089844 C 20.953125 10.484375 24.863281 10.484375 24.863281 13.089844 "/>
<path style="fill-rule:nonzero;fill:rgb(0%,0%,0%);fill-opacity:1;stroke-width:0.708661;stroke-linecap:round;stroke-linejoin:round;stroke:rgb(0%,0%,0%);stroke-opacity:1;stroke-miterlimit:10;" d="M 108.703125 18.378906 C 108.703125 20.984375 104.792969 20.984375 104.792969 18.378906 C 104.792969 15.773438 108.703125 15.773438 108.703125 18.378906 "/>
<path style="fill-rule:nonzero;fill:rgb(0%,0%,0%);fill-opacity:1;stroke-width:0.708661;stroke-linecap:round;stroke-linejoin:round;stroke:rgb(0%,0%,0%);stroke-opacity:1;stroke-miterlimit:10;" d="M 453.800781 228.917969 C 453.800781 231.523438 449.890625 231.523438 449.890625 228.917969 C 449.890625 226.3125 453.800781 226.3125 453.800781 228.917969 "/>
<path style="fill-rule:nonzero;fill:rgb(0%,0%,0%);fill-opacity:1;stroke-width:0.708661;stroke-linecap:round;stroke-linejoin:round;stroke:rgb(0%,0%,0%);stroke-opacity:1;stroke-miterlimit:10;" d="M 414.804688 268.082031 C 414.804688 270.6875 410.894531 270.6875 410.894531 268.082031 C 410.894531 265.472656 414.804688 265.472656 414.804688 268.082031 "/>
<path style="fill-rule:nonzero;fill:rgb(0%,0%,0%);fill-opacity:1;stroke-width:0.708661;stroke-linecap:round;stroke-linejoin:round;stroke:rgb(0%,0%,0%);stroke-opacity:1;stroke-miterlimit:10;" d="M 483.046875 253.351562 C 483.046875 255.960938 479.136719 255.960938 479.136719 253.351562 C 479.136719 250.746094 483.046875 250.746094 483.046875 253.351562 "/>
<path style="fill-rule:nonzero;fill:rgb(0%,0%,0%);fill-opacity:1;stroke-width:0.708661;stroke-linecap:round;stroke-linejoin:round;stroke:rgb(0%,0%,0%);stroke-opacity:1;stroke-miterlimit:10;" d="M 241.28125 211.179688 C 241.28125 213.785156 237.371094 213.785156 237.371094 211.179688 C 237.371094 208.570312 241.28125 208.570312 241.28125 211.179688 "/>
<path style="fill-rule:nonzero;fill:rgb(0%,0%,0%);fill-opacity:1;stroke-width:0.708661;stroke-linecap:round;stroke-linejoin:round;stroke:rgb(0%,0%,0%);stroke-opacity:1;stroke-miterlimit:10;" d="M 124.300781 140.550781 C 124.300781 143.160156 120.390625 143.160156 120.390625 140.550781 C 120.390625 137.945312 124.300781 137.945312 124.300781 140.550781 "/>
<path style="fill-rule:nonzero;fill:rgb(0%,0%,0%);fill-opacity:1;stroke-width:0.708661;stroke-linecap:round;stroke-linejoin:round;stroke:rgb(0%,0%,0%);stroke-opacity:1;stroke-miterlimit:10;" d="M 118.449219 146.242188 C 118.449219 148.847656 114.539062 148.847656 114.539062 146.242188 C 114.539062 143.636719 118.449219 143.636719 118.449219 146.242188 "/>
<path style="fill-rule:nonzero;fill:rgb(0%,0%,0%);fill-opacity:1;stroke-width:0.708661;stroke-linecap:round;stroke-linejoin:round;stroke:rgb(0%,0%,0%);stroke-opacity:1;stroke-miterlimit:10;" d="M 81.40625 119.128906 C 81.40625 121.738281 77.496094 121.738281 77.496094 119.128906 C 77.496094 116.523438 81.40625 116.523438 81.40625 119.128906 "/>
<path style="fill-rule:nonzero;fill:rgb(0%,0%,0%);fill-opacity:1;stroke-width:0.708661;stroke-linecap:round;stroke-linejoin:round;stroke:rgb(0%,0%,0%);stroke-opacity:1;stroke-miterlimit:10;" d="M 196.4375 118.796875 C 196.4375 121.402344 192.527344 121.402344 192.527344 118.796875 C 192.527344 116.1875 196.4375 116.1875 196.4375 118.796875 "/>
<path style="fill-rule:nonzero;fill:rgb(0%,0%,0%);fill-opacity:1;stroke-width:0.708661;stroke-linecap:round;stroke-linejoin:round;stroke:rgb(0%,0%,0%);stroke-opacity:1;stroke-miterlimit:10;" d="M 354.363281 246.660156 C 354.363281 249.265625 350.457031 249.265625 350.457031 246.660156 C 350.457031 244.050781 354.363281 244.050781 354.363281 246.660156 "/>
<path style="fill-rule:nonzero;fill:rgb(0%,0%,0%);fill-opacity:1;stroke-width:0.708661;stroke-linecap:round;stroke-linejoin:round;stroke:rgb(0%,0%,0%);stroke-opacity:1;stroke-miterlimit:10;" d="M 329.019531 232.933594 C 329.019531 235.542969 325.109375 235.542969 325.109375 232.933594 C 325.109375 230.328125 329.019531 230.328125 329.019531 232.933594 "/>
<path style="fill-rule:nonzero;fill:rgb(0%,0%,0%);fill-opacity:1;stroke-width:0.708661;stroke-linecap:round;stroke-linejoin:round;stroke:rgb(0%,0%,0%);stroke-opacity:1;stroke-miterlimit:10;" d="M 414.804688 274.910156 C 414.804688 277.515625 410.894531 277.515625 410.894531 274.910156 C 410.894531 272.300781 414.804688 272.300781 414.804688 274.910156 "/>
<path style="fill-rule:nonzero;fill:rgb(0%,0%,0%);fill-opacity:1;stroke-width:0.708661;stroke-linecap:round;stroke-linejoin:round;stroke:rgb(0%,0%,0%);stroke-opacity:1;stroke-miterlimit:10;" d="M 130.148438 163.984375 C 130.148438 166.589844 126.238281 166.589844 126.238281 163.984375 C 126.238281 161.375 130.148438 161.375 130.148438 163.984375 "/>
<path style="fill-rule:nonzero;fill:rgb(0%,0%,0%);fill-opacity:1;stroke-width:0.708661;stroke-linecap:round;stroke-linejoin:round;stroke:rgb(0%,0%,0%);stroke-opacity:1;stroke-miterlimit:10;" d="M 206.1875 190.761719 C 206.1875 193.367188 202.277344 193.367188 202.277344 190.761719 C 202.277344 188.152344 206.1875 188.152344 206.1875 190.761719 "/>
<path style="fill-rule:nonzero;fill:rgb(0%,0%,0%);fill-opacity:1;stroke-width:0.708661;stroke-linecap:round;stroke-linejoin:round;stroke:rgb(0%,0%,0%);stroke-opacity:1;stroke-miterlimit:10;" d="M 114.550781 137.207031 C 114.550781 139.8125 110.640625 139.8125 110.640625 137.207031 C 110.640625 134.597656 114.550781 134.597656 114.550781 137.207031 "/>
<path style="fill-rule:nonzero;fill:rgb(0%,0%,0%);fill-opacity:1;stroke-width:0.708661;stroke-linecap:round;stroke-linejoin:round;stroke:rgb(0%,0%,0%);stroke-opacity:1;stroke-miterlimit:10;" d="M 239.332031 190.089844 C 239.332031 192.699219 235.421875 192.699219 235.421875 190.089844 C 235.421875 187.484375 239.332031 187.484375 239.332031 190.089844 "/>
</g>
</svg>
